<?xml version="1.0" encoding="UTF-8" standalone="no"?>
<!-- Created with Inkscape (http://www.inkscape.org/) -->

<svg
   version="1.1"
   id="svg1"
   width="4135.8672"
   height="813.42975"
   viewBox="0 0 4135.8672 813.42976"
   xmlns="http://www.w3.org/2000/svg"
   xmlns:svg="http://www.w3.org/2000/svg">
  <defs
     id="defs1">
    <clipPath
       clipPathUnits="userSpaceOnUse"
       id="clipPath3">
      <path
         d="M 0,748.462 H 890.956 V 0 H 0 Z"
         transform="translate(-40.277301,-48.866201)"
         id="path3" />
    </clipPath>
    <clipPath
       clipPathUnits="userSpaceOnUse"
       id="clipPath5">
      <path
         d="M 0,748.462 H 890.956 V 0 H 0 Z"
         transform="translate(-88.8628,-48.866201)"
         id="path5" />
    </clipPath>
    <clipPath
       clipPathUnits="userSpaceOnUse"
       id="clipPath7">
      <path
         d="M 0,748.462 H 890.956 V 0 H 0 Z"
         transform="translate(-153.6445,-71.125999)"
         id="path7" />
    </clipPath>
    <clipPath
       clipPathUnits="userSpaceOnUse"
       id="clipPath9">
      <path
         d="M 0,748.462 H 890.956 V 0 H 0 Z"
         transform="translate(-250.39651,-65.888704)"
         id="path9" />
    </clipPath>
    <clipPath
       clipPathUnits="userSpaceOnUse"
       id="clipPath11">
      <path
         d="M 0,748.462 H 890.956 V 0 H 0 Z"
         transform="translate(-336.58641,-65.888704)"
         id="path11" />
    </clipPath>
    <clipPath
       clipPathUnits="userSpaceOnUse"
       id="clipPath13">
      <path
         d="M 0,748.462 H 890.956 V 0 H 0 Z"
         transform="translate(-393.48291,-58.759804)"
         id="path13" />
    </clipPath>
    <clipPath
       clipPathUnits="userSpaceOnUse"
       id="clipPath15">
      <path
         d="M 0,748.462 H 890.956 V 0 H 0 Z"
         transform="translate(-446.57521,-95.569302)"
         id="path15" />
    </clipPath>
    <clipPath
       clipPathUnits="userSpaceOnUse"
       id="clipPath17">
      <path
         d="M 0,748.462 H 890.956 V 0 H 0 Z"
         transform="translate(-530.63962,-97.9736)"
         id="path17" />
    </clipPath>
    <clipPath
       clipPathUnits="userSpaceOnUse"
       id="clipPath19">
      <path
         d="M 0,748.462 H 890.956 V 0 H 0 Z"
         transform="translate(-601.87892,-95.758805)"
         id="path19" />
    </clipPath>
    <clipPath
       clipPathUnits="userSpaceOnUse"
       id="clipPath21">
      <path
         d="M 0,748.462 H 890.956 V 0 H 0 Z"
         transform="translate(-684.84182,-95.889605)"
         id="path21" />
    </clipPath>
    <clipPath
       clipPathUnits="userSpaceOnUse"
       id="clipPath23">
      <path
         d="M 0,748.462 H 890.956 V 0 H 0 Z"
         transform="translate(-782.93754,-48.866201)"
         id="path23" />
    </clipPath>
    <clipPath
       clipPathUnits="userSpaceOnUse"
       id="clipPath25">
      <path
         d="M 0,748.462 H 890.956 V 0 H 0 Z"
         transform="translate(-217.2832,-159.7891)"
         id="path25" />
    </clipPath>
    <clipPath
       clipPathUnits="userSpaceOnUse"
       id="clipPath27">
      <path
         d="M 0,748.462 H 890.956 V 0 H 0 Z"
         transform="translate(-512.66602,-569.38671)"
         id="path27" />
    </clipPath>
    <clipPath
       clipPathUnits="userSpaceOnUse"
       id="clipPath29">
      <path
         d="M 0,748.462 H 890.956 V 0 H 0 Z"
         transform="translate(-150.6885,-159.7891)"
         id="path29" />
    </clipPath>
    <clipPath
       clipPathUnits="userSpaceOnUse"
       id="clipPath31">
      <path
         d="M 0,748.462 H 890.956 V 0 H 0 Z"
         transform="translate(-292.792,-548.34621)"
         id="path31" />
    </clipPath>
    <clipPath
       clipPathUnits="userSpaceOnUse"
       id="clipPath33">
      <path
         d="M 0,748.462 H 890.956 V 0 H 0 Z"
         transform="translate(-309.58641,-393.52341)"
         id="path33" />
    </clipPath>
    <clipPath
       clipPathUnits="userSpaceOnUse"
       id="clipPath35">
      <path
         d="M 0,748.462 H 890.956 V 0 H 0 Z"
         transform="translate(-545.05372,-541.40531)"
         id="path35" />
    </clipPath>
    <clipPath
       clipPathUnits="userSpaceOnUse"
       id="clipPath37">
      <path
         d="M 0,748.462 H 890.956 V 0 H 0 Z"
         transform="translate(-585.05371,-513.40532)"
         id="path37" />
    </clipPath>
    <clipPath
       clipPathUnits="userSpaceOnUse"
       id="clipPath39">
      <path
         d="M 0,748.462 H 890.956 V 0 H 0 Z"
         transform="translate(-655.72072,-359.07231)"
         id="path39" />
    </clipPath>
    <clipPath
       clipPathUnits="userSpaceOnUse"
       id="clipPath41">
      <path
         d="M 0,748.462 H 890.956 V 0 H 0 Z"
         transform="translate(-660.72071,-298.07231)"
         id="path41" />
    </clipPath>
    <clipPath
       clipPathUnits="userSpaceOnUse"
       id="clipPath43">
      <path
         d="M 0,748.462 H 890.956 V 0 H 0 Z"
         transform="translate(-769.72074,-282.40531)"
         id="path43" />
    </clipPath>
    <clipPath
       clipPathUnits="userSpaceOnUse"
       id="clipPath45">
      <path
         d="M 0,748.462 H 890.956 V 0 H 0 Z"
         transform="translate(-756.38672,-393.07231)"
         id="path45" />
    </clipPath>
    <clipPath
       clipPathUnits="userSpaceOnUse"
       id="clipPath47">
      <path
         d="M 0,748.462 H 890.956 V 0 H 0 Z"
         transform="translate(-172.3398,-415.24561)"
         id="path47" />
    </clipPath>
    <clipPath
       clipPathUnits="userSpaceOnUse"
       id="clipPath49">
      <path
         d="M 0,748.462 H 890.956 V 0 H 0 Z"
         transform="translate(-217.29301,-408.43461)"
         id="path49" />
    </clipPath>
    <clipPath
       clipPathUnits="userSpaceOnUse"
       id="clipPath51">
      <path
         d="M 0,748.462 H 890.956 V 0 H 0 Z"
         transform="translate(-327.29251,-366.88771)"
         id="path51" />
    </clipPath>
    <clipPath
       clipPathUnits="userSpaceOnUse"
       id="clipPath53">
      <path
         d="M 0,748.462 H 890.956 V 0 H 0 Z"
         transform="translate(-293.1787,-548.54391)"
         id="path53" />
    </clipPath>
    <clipPath
       clipPathUnits="userSpaceOnUse"
       id="clipPath55">
      <path
         d="M 0,748.462 H 890.956 V 0 H 0 Z"
         transform="translate(-304.38671,-483.07231)"
         id="path55" />
    </clipPath>
    <clipPath
       clipPathUnits="userSpaceOnUse"
       id="clipPath57">
      <path
         d="M 0,748.462 H 890.956 V 0 H 0 Z"
         transform="translate(-369.05321,-559.07282)"
         id="path57" />
    </clipPath>
    <clipPath
       clipPathUnits="userSpaceOnUse"
       id="clipPath59">
      <path
         d="M 0,748.462 H 890.956 V 0 H 0 Z"
         transform="translate(-588.38671,-508.40582)"
         id="path59" />
    </clipPath>
    <clipPath
       clipPathUnits="userSpaceOnUse"
       id="clipPath61">
      <path
         d="M 0,748.462 H 890.956 V 0 H 0 Z"
         transform="translate(-630.38672,-301.07231)"
         id="path61" />
    </clipPath>
    <clipPath
       clipPathUnits="userSpaceOnUse"
       id="clipPath63">
      <path
         d="M 0,748.462 H 890.956 V 0 H 0 Z"
         transform="translate(-299.56981,-482.84081)"
         id="path63" />
    </clipPath>
    <clipPath
       clipPathUnits="userSpaceOnUse"
       id="clipPath65">
      <path
         d="M 0,748.462 H 890.956 V 0 H 0 Z"
         transform="translate(-295.0864,-549.35552)"
         id="path65" />
    </clipPath>
    <clipPath
       clipPathUnits="userSpaceOnUse"
       id="clipPath67">
      <path
         d="M 0,748.462 H 890.956 V 0 H 0 Z"
         transform="translate(-550.13671,-539.07231)"
         id="path67" />
    </clipPath>
    <clipPath
       clipPathUnits="userSpaceOnUse"
       id="clipPath69">
      <path
         d="M 0,748.462 H 890.956 V 0 H 0 Z"
         transform="translate(-527.88671,-266.57231)"
         id="path69" />
    </clipPath>
  </defs>
  <g
     id="g1"
     transform="translate(6.9756898e-4,9.6467915)">
    <g
       id="group-MC0">
      <g
         id="g69"
         transform="matrix(2.6121797,0,0,2.6121797,1138.6025,-1867.0572)">
        <path
           id="path2"
           d="M 0,0 V 59.506 H -8.872 V 74.201 H 0 v 2.182 c 0,4.656 0.705,8.705 2.113,12.149 1.408,3.442 3.144,6.111 5.211,8.002 2.064,1.891 4.528,3.419 7.393,4.583 2.863,1.163 5.422,1.914 7.676,2.255 2.253,0.339 4.552,0.509 6.9,0.509 l 6.056,-0.437 V 87.731 c -1.034,0.194 -2.253,0.291 -3.661,0.291 -9.203,0 -13.802,-4.026 -13.802,-12.076 V 74.201 H 33.237 V 59.506 H 17.886 V 0 Z"
           style="fill:#f68712;fill-opacity:1;fill-rule:nonzero;stroke:none"
           transform="matrix(1.3333333,0,0,-1.3333333,53.703067,932.7944)"
           clip-path="url(#clipPath3)" />
        <path
           id="path4"
           d="m 0,0 v 55.287 c 0,2.132 -1.034,3.2 -3.098,3.2 H -8.731 V 74.201 H 7.605 c 6.384,0 9.577,-3.008 9.577,-9.02 V 60.815 L 16.9,56.16 h 0.282 c 1.69,5.528 4.577,10.086 8.661,13.676 4.084,3.587 8.802,5.384 14.154,5.384 l 3.239,-0.291 V 56.742 c -1.221,0.193 -2.676,0.291 -4.366,0.291 -4.225,0 -8.168,-1.309 -11.83,-3.929 C 23.378,50.485 20.795,46.605 19.294,41.465 18.26,37.683 17.745,33.656 17.745,29.39 V 0 Z"
           style="fill:#f68712;fill-opacity:1;fill-rule:nonzero;stroke:none"
           transform="matrix(1.3333333,0,0,-1.3333333,118.48373,932.7944)"
           clip-path="url(#clipPath5)" />
        <path
           id="path6"
           d="m 0,0 c 0,-2.618 0.937,-4.873 2.816,-6.765 1.877,-1.891 4.553,-2.837 8.028,-2.837 4.599,0 8.472,2.06 11.619,6.183 3.144,4.122 4.718,8.56 4.718,13.313 V 11.64 H 24.083 C 8.027,11.64 0,7.76 0,0 m -18.027,-0.872 c 0,3.685 0.751,6.983 2.254,9.893 1.5,2.91 3.591,5.238 6.267,6.984 2.675,1.745 5.468,3.224 8.379,4.437 2.909,1.211 6.127,2.06 9.647,2.546 3.521,0.485 6.479,0.824 8.873,1.019 2.394,0.193 4.81,0.291 7.253,0.291 h 2.253 v 0.582 c 0,5.237 -1.056,8.97 -3.169,11.202 -2.112,2.231 -5.47,3.347 -10.069,3.347 -2.254,0 -4.414,-0.364 -6.479,-1.091 C 5.116,37.61 4.084,36.323 4.084,34.482 v -3.928 h -16.618 v 7.856 c 0,3.201 0.961,5.915 2.887,8.148 1.923,2.23 4.458,3.805 7.605,4.728 3.144,0.921 5.961,1.551 8.45,1.892 2.487,0.339 4.951,0.509 7.393,0.509 20.655,0 30.984,-9.846 30.984,-29.535 V -3.491 c 0,-2.135 1.032,-3.201 3.098,-3.201 h 5.634 V -22.26 H 37.461 c -3.098,0 -5.399,0.75 -6.9,2.255 -1.503,1.503 -2.254,3.467 -2.254,5.893 l 0.141,3.201 h -0.281 c -0.19,-0.389 -0.423,-0.873 -0.705,-1.455 -0.281,-0.582 -1.034,-1.626 -2.253,-3.128 -1.221,-1.505 -2.584,-2.837 -4.084,-4.001 -1.503,-1.164 -3.569,-2.208 -6.197,-3.128 -2.63,-0.921 -5.446,-1.383 -8.45,-1.383 -6.76,0 -12.534,2.085 -17.322,6.256 -4.789,4.17 -7.183,9.796 -7.183,16.878"
           style="fill:#f68712;fill-opacity:1;fill-rule:nonzero;stroke:none"
           transform="matrix(1.3333333,0,0,-1.3333333,204.85933,903.11467)"
           clip-path="url(#clipPath7)" />
        <path
           id="path8"
           d="m 0,0 c 4.881,0 8.895,1.696 12.041,5.093 3.145,3.393 4.718,8.97 4.718,16.731 0,14.258 -5.964,21.387 -17.886,21.387 -5.352,0 -9.484,-1.844 -12.393,-5.528 -2.911,-3.688 -4.366,-8.73 -4.366,-15.131 0,-6.694 1.571,-12.126 4.718,-16.296 C -10.023,2.085 -5.633,0 0,0 m -36.053,21.97 c 0,10.668 2.816,19.495 8.449,26.479 5.634,6.984 13.426,10.475 23.379,10.475 3.098,0 5.985,-0.363 8.661,-1.091 2.676,-0.728 4.789,-1.601 6.337,-2.619 1.55,-1.019 2.91,-2.036 4.085,-3.055 1.173,-1.018 1.947,-1.869 2.324,-2.547 l 0.704,-1.163 h 0.281 v 1.891 c 0,1.842 0.656,3.442 1.972,4.802 1.314,1.357 3.285,2.037 5.915,2.037 H 42.672 V 41.465 H 37.18 c -2.066,0 -3.098,-0.971 -3.098,-2.909 v -51.069 c 0,-6.11 -1.081,-11.493 -3.24,-16.149 -2.16,-4.655 -5.07,-8.316 -8.731,-10.984 -3.662,-2.667 -7.676,-4.656 -12.042,-5.965 -4.365,-1.31 -8.991,-1.965 -13.872,-1.965 -9.202,0 -17.698,2.135 -25.49,6.402 l 5.492,14.549 c 5.915,-3.296 12.534,-4.946 19.858,-4.946 5.915,0 10.773,1.454 14.576,4.364 3.802,2.91 5.703,7.518 5.703,13.822 v 3.491 l 0.142,3.929 h -0.282 c -4.32,-6.402 -10.985,-9.602 -19.999,-9.602 -9.952,0 -17.815,3.612 -23.589,10.838 -5.775,7.225 -8.661,16.125 -8.661,26.699"
           style="fill:#f68712;fill-opacity:1;fill-rule:nonzero;stroke:none"
           transform="matrix(1.3333333,0,0,-1.3333333,333.862,910.09773)"
           clip-path="url(#clipPath9)" />
        <path
           id="path10"
           d="m 0,0 c 4.881,0 8.895,1.696 12.041,5.093 3.145,3.393 4.718,8.97 4.718,16.731 0,14.258 -5.964,21.387 -17.886,21.387 -5.352,0 -9.484,-1.844 -12.393,-5.528 -2.911,-3.688 -4.366,-8.73 -4.366,-15.131 0,-6.694 1.571,-12.126 4.718,-16.296 C -10.023,2.085 -5.633,0 0,0 m -36.053,21.97 c 0,10.668 2.816,19.495 8.449,26.479 5.634,6.984 13.426,10.475 23.379,10.475 3.098,0 5.985,-0.363 8.661,-1.091 2.676,-0.728 4.789,-1.601 6.337,-2.619 1.55,-1.019 2.91,-2.036 4.085,-3.055 1.173,-1.018 1.947,-1.869 2.324,-2.547 l 0.704,-1.163 h 0.281 v 1.891 c 0,1.842 0.656,3.442 1.972,4.802 1.314,1.357 3.285,2.037 5.915,2.037 H 42.672 V 41.465 H 37.18 c -2.066,0 -3.098,-0.971 -3.098,-2.909 v -51.069 c 0,-6.11 -1.081,-11.493 -3.24,-16.149 -2.16,-4.655 -5.07,-8.316 -8.731,-10.984 -3.662,-2.667 -7.676,-4.656 -12.042,-5.965 -4.365,-1.31 -8.991,-1.965 -13.872,-1.965 -9.202,0 -17.698,2.135 -25.49,6.402 l 5.492,14.549 c 5.915,-3.296 12.534,-4.946 19.858,-4.946 5.915,0 10.773,1.454 14.576,4.364 3.802,2.91 5.703,7.518 5.703,13.822 v 3.491 l 0.142,3.929 h -0.282 c -4.32,-6.402 -10.985,-9.602 -19.999,-9.602 -9.952,0 -17.815,3.612 -23.589,10.838 -5.775,7.225 -8.661,16.125 -8.661,26.699"
           style="fill:#f68712;fill-opacity:1;fill-rule:nonzero;stroke:none"
           transform="matrix(1.3333333,0,0,-1.3333333,448.78187,910.09773)"
           clip-path="url(#clipPath11)" />
        <path
           id="path12"
           d="m 0,0 v 74.491 c 0,2.133 -1.034,3.201 -3.098,3.201 h -5.633 v 15.713 h 17.04 c 6.384,0 9.577,-3.298 9.577,-9.893 V 8.875 c 0,-2.135 1.032,-3.201 3.098,-3.201 h 5.493 V -9.894 h -16.9 c -3.38,0 -5.823,0.776 -7.324,2.329 C 0.75,-6.016 0,-3.492 0,0"
           style="fill:#f68712;fill-opacity:1;fill-rule:nonzero;stroke:none"
           transform="matrix(1.3333333,0,0,-1.3333333,524.64387,919.60293)"
           clip-path="url(#clipPath13)" />
        <path
           id="path14"
           d="m 0,0 h 31.124 c -0.095,4.364 -1.433,7.952 -4.014,10.767 -2.584,2.811 -5.752,4.218 -9.506,4.218 -4.601,0 -8.428,-1.334 -11.478,-4.001 C 3.074,8.315 1.032,4.655 0,0 m -18.872,-9.603 c 0,11.444 3.38,20.781 10.14,28.007 6.76,7.225 15.538,10.839 26.336,10.839 9.951,0 17.745,-3.323 23.378,-9.966 5.634,-6.644 8.451,-15.058 8.451,-25.243 L 49.01,-12.804 H -0.563 c 0.655,-6.305 3.003,-11.203 7.041,-14.694 4.036,-3.492 8.873,-5.238 14.505,-5.238 3.381,0 6.761,0.703 10.141,2.11 3.38,1.404 5.867,2.787 7.465,4.147 l 2.534,2.036 7.464,-12.803 c -0.281,-0.291 -0.703,-0.705 -1.268,-1.236 -0.562,-0.535 -1.808,-1.433 -3.731,-2.693 -1.926,-1.262 -3.921,-2.378 -5.985,-3.346 -2.067,-0.97 -4.719,-1.869 -7.957,-2.691 -3.24,-0.823 -6.549,-1.237 -9.93,-1.237 -11.548,0 -20.867,3.758 -27.955,11.275 -7.09,7.516 -10.633,16.707 -10.633,27.571"
           style="fill:#f68712;fill-opacity:1;fill-rule:nonzero;stroke:none"
           transform="matrix(1.3333333,0,0,-1.3333333,595.4336,870.5236)"
           clip-path="url(#clipPath15)" />
        <path
           id="path16"
           d="m 0,0 h 13.112 c 4.203,0 7.459,1.28 9.772,3.843 2.31,2.559 3.469,6.141 3.469,10.746 0,4.514 -1.159,8.031 -3.469,10.551 -2.313,2.517 -5.485,3.777 -9.52,3.777 H 0 Z m -16.518,-49.107 v 78.024 h -8.195 v 14.459 h 40.095 c 8.322,0 15.047,-2.498 20.174,-7.49 5.127,-4.994 7.691,-11.788 7.691,-20.386 0,-3.907 -0.588,-7.469 -1.766,-10.681 -1.177,-3.214 -2.627,-5.731 -4.349,-7.554 -1.723,-1.825 -3.342,-3.237 -4.854,-4.234 -1.513,-1 -2.818,-1.629 -3.91,-1.888 v -0.261 c 1.85,-0.869 3.32,-2.433 4.414,-4.69 l 8.699,-17.845 c 1.01,-1.998 3.11,-2.995 6.305,-2.995 h 1.639 v -14.459 h -8.699 c -3.448,0 -6.034,0.433 -7.754,1.302 -1.725,0.867 -3.301,2.736 -4.729,5.601 l -11.474,23.316 c -0.926,1.737 -1.954,2.886 -3.088,3.452 -1.135,0.564 -2.922,0.847 -5.36,0.847 H 0 v -34.518 z"
           style="fill:#3871c1;fill-opacity:1;fill-rule:nonzero;stroke:none"
           transform="matrix(1.3333333,0,0,-1.3333333,707.51947,867.31787)"
           clip-path="url(#clipPath17)" />
        <path
           id="path18"
           d="m 0,0 c 0,-9.205 2.814,-16.934 8.447,-23.186 5.631,-6.252 12.524,-9.378 20.678,-9.378 8.152,0 15.047,3.126 20.678,9.378 5.631,6.252 8.449,13.981 8.449,23.186 0,8.771 -2.818,16.173 -8.449,22.209 -5.631,6.035 -12.526,9.053 -20.678,9.053 -8.154,0 -15.047,-3.018 -20.678,-9.053 C 2.814,16.173 0,8.771 0,0 m -17.148,0 c 0,13.286 4.433,24.467 13.302,33.542 8.867,9.073 19.858,13.611 32.971,13.611 13.113,0 24.104,-4.538 32.973,-13.611 8.867,-9.075 13.3,-20.256 13.3,-33.542 0,-13.634 -4.433,-25.119 -13.3,-34.453 -8.869,-9.336 -19.86,-14.003 -32.973,-14.003 -13.113,0 -24.104,4.667 -32.971,14.003 -8.869,9.334 -13.302,20.819 -13.302,34.453"
           style="fill:#3871c1;fill-opacity:1;fill-rule:nonzero;stroke:none"
           transform="matrix(1.3333333,0,0,-1.3333333,802.5052,870.27093)"
           clip-path="url(#clipPath19)" />
        <path
           id="path20"
           d="m 0,0 c 0,13.371 4.33,24.554 12.988,33.541 8.657,8.988 19.459,13.481 32.405,13.481 3.193,0 6.597,-0.37 10.212,-1.106 3.614,-0.739 7.27,-1.847 10.969,-3.322 3.699,-1.478 6.746,-3.627 9.143,-6.448 2.394,-2.823 3.594,-6.101 3.594,-9.834 V 16.021 H 64.305 v 5.21 c 0,3.126 -1.953,5.557 -5.864,7.295 -3.908,1.736 -8.13,2.605 -12.671,2.605 -8.239,0 -15.067,-2.822 -20.489,-8.467 C 19.859,17.019 17.148,9.464 17.148,0 c 0,-9.033 2.817,-16.738 8.448,-23.121 5.631,-6.383 12.525,-9.574 20.679,-9.574 3.194,0 6.282,0.411 9.268,1.237 2.982,0.824 5.504,1.845 7.564,3.062 2.059,1.214 3.909,2.429 5.547,3.647 1.641,1.215 2.838,2.214 3.594,2.996 l 1.135,1.302 8.701,-12.244 c -0.338,-0.436 -0.842,-0.999 -1.514,-1.694 -0.674,-0.696 -2.187,-1.954 -4.539,-3.777 -2.353,-1.823 -4.812,-3.452 -7.377,-4.885 -2.564,-1.432 -5.906,-2.715 -10.023,-3.843 -4.119,-1.127 -8.32,-1.693 -12.608,-1.693 -13.535,0 -24.587,4.625 -33.162,13.873 C 4.287,-25.466 0,-13.896 0,0"
           style="fill:#3871c1;fill-opacity:1;fill-rule:nonzero;stroke:none"
           transform="matrix(1.3333333,0,0,-1.3333333,913.1224,870.09653)"
           clip-path="url(#clipPath21)" />
        <path
           id="path22"
           d="m 0,0 v 75.159 c 0,1.909 -0.926,2.865 -2.773,2.865 H -8.195 V 92.483 H 7.943 c 3.028,0 5.211,-0.716 6.557,-2.149 1.344,-1.433 2.018,-3.67 2.018,-6.708 V 54.839 h 6.304 c 3.698,0 6.094,0.997 7.188,2.996 L 48.039,92.483 H 66.197 L 46.021,54.448 C 45.182,52.885 44.299,51.537 43.375,50.41 42.449,49.28 41.736,48.541 41.23,48.195 l -0.882,-0.52 v -0.261 c 2.017,-0.521 3.951,-2.65 5.8,-6.383 L 57.496,17.454 c 0.924,-1.998 3.025,-2.995 6.305,-2.995 h 2.396 V 0 H 56.74 C 53.209,0 50.604,0.434 48.922,1.303 47.24,2.17 45.686,4.038 44.258,6.903 L 29.631,37.254 c -0.674,1.388 -1.598,2.257 -2.774,2.605 -1.177,0.346 -2.859,0.521 -5.043,0.521 H 16.518 V 0 Z"
           style="fill:#3871c1;fill-opacity:1;fill-rule:nonzero;stroke:none"
           transform="matrix(1.3333333,0,0,-1.3333333,1043.9167,932.7944)"
           clip-path="url(#clipPath23)" />
      </g>
      <path
         id="path24"
         d="m 0,0 c 0,0 -12.531,15.396 -5.012,21.482 0,0 -1.074,9.667 55.137,-22.556 z"
         style="fill:#176fc1;fill-opacity:1;fill-rule:nonzero;stroke:none"
         transform="matrix(1.3333333,0,0,-1.3333333,289.71093,784.8972)"
         clip-path="url(#clipPath25)" />
      <path
         id="path26"
         d="m 0,0 c 2.148,4.654 -3.58,39.742 -3.58,39.742 -3.223,19.334 6.444,5.371 6.444,5.371 l 8.593,-12.531 c 0,0 10.742,-24.706 0.358,-40.459 z"
         style="fill:none;stroke:#ec008c;stroke-width:1;stroke-linecap:butt;stroke-linejoin:miter;stroke-miterlimit:4;stroke-dasharray:none;stroke-opacity:1"
         transform="matrix(1.3333333,0,0,-1.3333333,683.55467,238.76707)"
         clip-path="url(#clipPath27)" />
      <path
         id="path28"
         d="m 0,0 h -88.793 c 0,0 -6.445,7.876 4.296,12.173 0,0 11.1,7.518 25.779,2.148 0,0 23.63,-1.431 29.359,11.1 0,0 11.098,10.025 -6.445,14.68 0,0 -23.631,2.505 -44.039,-11.1 0,0 -12.531,-9.309 -18.617,0.358 0,0 -1.791,7.877 9.308,11.457 0,0 4.297,1.075 7.161,0.716 0,0 6.087,-0.716 -0.716,5.013 0,0 -10.025,2.148 -10.741,8.593 0,0 6.445,12.532 33.298,3.222 0,0 123.522,-32.94 131.041,13.963 0,0 6.087,21.124 -24.704,19.334 0,0 -44.397,-0.358 -65.163,-7.518 0,0 -22.199,-7.876 -37.236,-7.16 0,0 -20.408,-3.222 -35.088,-5.729 0,0 -45.113,-12.89 -45.113,5.37 0,0 -1.074,9.666 16.828,10.383 0,0 6.803,-0.357 12.89,-4.296 0,0 7.877,-2.507 7.16,8.234 0,0 -1.79,5.014 -8.235,2.507 0,0 -11.099,-3.939 -9.667,8.95 0,0 1.79,8.952 16.112,3.939 0,0 30.433,-15.754 46.545,-7.519 0,0 10.025,2.506 22.914,-3.938 0,0 19.693,-0.716 11.816,15.038 0,0 -7.877,17.543 -31.15,16.47 0,0 -27.569,-3.58 -31.507,2.148 0,0 -47.619,-5.371 -39.742,17.902 0,0 -10.025,13.605 2.148,15.038 0,0 3.581,1.431 12.531,-6.803 0,0 17.186,-18.261 26.495,-16.112 0,0 16.828,5.37 8.235,13.963 0,0 -20.408,6.803 -12.531,19.692 0,0 15.395,11.457 29.001,-1.79 0,0 15.038,-31.864 62.299,-45.113 0,0 60.15,-19.334 84.854,-20.408 0,0 29.718,-7.16 62.657,-22.198 0,0 19.692,-5.729 34.013,-7.519 0,0 33.656,-1.791 29.36,23.63 0,0 -39.026,76.979 -112.424,80.201 0,0 -71.966,-8.593 -76.262,10.025 0,0 -1.79,14.321 15.037,8.234 0,0 22.914,-1.789 12.89,10.743 0,0 -8.235,13.246 -40.458,11.098 0,0 -52.631,-11.457 -57.644,18.618 0,0 -2.148,18.977 11.458,11.1 0,0 22.556,-16.112 24.346,-2.865 0,0 5.371,14.321 -6.803,15.038 0,0 -55.137,8.593 -57.285,40.1 0,0 3.58,20.409 19.334,17.902 0,0 11.815,1.074 25.062,-17.544 0,0 8.951,-9.309 17.902,-7.519 0,0 7.161,10e-4 -0.358,8.236 0,0 -31.149,25.062 -20.05,39.025 0,0 8.235,5.729 13.247,-4.654 0,0 8.594,-14.322 9.31,-1.074 0,0 1.431,11.815 11.814,1.432 0,0 6.445,-6.086 20.409,-32.939 0,0 11.815,-19.693 21.482,-21.125 0,0 -2.865,25.421 14.321,24.347 0,0 16.471,2.865 16.829,-15.754 0,0 2.148,-20.049 20.766,-1.432 0,0 13.963,43.681 -17.544,35.804 0,0 -12.173,-6.803 -22.199,4.654 0,0 -16.47,12.531 -25.42,16.828 0,0 -24.347,17.186 -9.667,26.495 0,0 8.593,8.951 15.753,-6.086 0,0 12.89,-6.445 6.803,5.728 0,0 -2.864,12.173 5.371,12.531 0,0 9.667,2.507 8.593,-15.037 0,0 2.148,-18.26 13.963,-11.099 0,0 6.087,-1.075 2.506,13.963 0,0 -6.445,25.779 -21.84,32.224 0,0 -17.901,8.234 -9.309,20.407 0,0 8.951,10.025 25.063,0 0,0 22.914,-9.666 32.581,-53.705 0,0 1.433,-15.754 12.174,-10.026 0,0 20.408,8.951 15.395,26.137 0,0 -5.371,20.051 3.222,12.532 0,0 13.606,-6.803 11.1,6.444 l -2.506,24.347 c 0,0 -4.297,19.692 8.235,9.309 0,0 17.185,-11.458 13.247,-49.768 l 14.679,2.865 c 0,0 -7.876,24.346 5.013,32.223 0,0 6.444,2.864 10.025,-21.482 0,0 26.853,13.606 11.815,-6.445 l 19.692,-3.222 -13.605,29.359 c 0,0 -16.47,30.433 -29.001,40.458 0,0 -7.16,1.075 -0.716,11.1 0,0 8.951,15.037 10.025,-1.791 0,0 -0.358,-8.234 6.803,-7.518 l 3.58,-0.359 c 0,0 4.655,-3.222 2.864,6.445 0,0 -6.802,25.421 0,31.507 0,0 6.803,6.803 10.383,-3.938 0,0 8.951,-21.124 9.309,-57.644 0,0 2.149,-29.717 13.606,-25.063 0,0 18.618,3.583 9.667,41.893 0,0 -7.161,24.704 -13.606,37.594 0,0 -11.457,17.544 -3.938,37.952 l 3.222,7.161 c 0,0 2.865,6.445 7.519,-1.074 l 7.519,-10.026 c 0,0 10.025,-10.024 3.938,-25.42 0,0 -2.148,-11.457 3.581,-14.68 0,0 9.666,-10.025 9.308,2.148 0,0 -3.222,13.248 4.655,16.828 0,0 10.025,3.938 9.667,-10.025 v -15.395 c 0,0 0,-12.532 -10.383,-27.927 0,0 -1.432,-17.186 -6.087,-26.137 0,0 -9.667,-21.124 -6.087,-35.804 0,0 39.027,-17.544 69.102,3.938 l -23.989,37.595 c 0,0 -10.383,13.605 -5.728,25.062 0,0 1.79,8.235 8.235,-1.432 0,0 15.037,-27.211 24.346,-35.446 0,0 12.89,-8.593 11.816,11.816 0,0 0.715,14.679 -7.877,24.346 0,0 -4.297,3.222 -5.371,15.396 l -1.432,12.173 c 0,0 -4.296,24.704 3.938,20.05 l 6.803,-5.012 c 0,0 10.382,-5.013 7.161,4.654 0,0 -6.086,16.828 -0.716,36.52 l 2.148,7.877 c 0,0 6.086,10.025 7.519,-2.148 l 1.433,-12.89 0.714,-3.222 c 0,0 4.297,-0.716 4.656,-11.457 l 2.147,-19.334 c 0,0 1.791,-8.951 8.951,-13.248 l 2.507,23.989 c 0,0 1.79,20.05 -1.79,28.285 0,0 -3.939,6.802 -0.358,13.605 0,0 3.221,7.161 2.864,11.815 0,0 1.79,15.754 8.234,6.445 0,0 3.58,-3.58 5.013,-8.235 0,0 7.161,-3.938 6.087,-10.383 0,0 -2.505,-15.037 -1.432,-24.704 0,0 -0.001,-35.446 2.148,-41.175 0,0 7.161,12.89 7.161,18.976 0,0 -1.79,5.013 2.148,7.161 0,0 -5.011,22.556 5.013,25.062 0,0 15.038,2.148 12.531,-9.309 0,0 -5.37,-29.716 -17.544,-51.557 0,0 -9.309,-20.408 -10.025,-34.73 l 0.358,-26.494 c 0,0 1.79,-32.581 -5.371,-37.594 l 33.298,-21.483 c 0,0 -0.717,37.236 -4.297,48.335 0,0 -1.432,37.953 5.729,55.854 0,0 5.372,13.248 4.655,20.767 0,0 0,9.666 3.939,13.963 0,0 8.95,7.518 11.098,-5.729 0,0 2.148,-17.185 -2.148,-29.001 0,0 -1.789,-23.63 14.322,-11.099 0,0 6.444,12.89 3.58,25.779 0,0 -2.148,23.273 3.939,32.94 0,0 6.801,9.309 11.098,-1.433 0,0 1.432,-6.803 0,-12.889 0,0 1.433,-9.309 9.31,-4.297 0,0 14.678,6.445 6.444,-9.667 0,0 -10.383,-24.704 -22.198,-33.297 0,0 -15.395,-14.322 -15.037,-40.816 0,0 1.432,-18.976 11.457,-1.432 0,0 2.864,3.938 3.938,13.963 0,0 -0.358,7.161 8.593,18.976 0,0 11.457,18.26 20.408,22.198 0,0 -2.148,16.828 6.803,18.26 0,0 7.161,2.865 5.728,-10.741 l 7.877,4.296 c 0,0 1.789,3.581 13.248,3.581 0,0 8.951,0.358 5.012,-7.877 0,0 -2.864,-7.877 -8.593,-10.741 0,0 -10.025,-6.445 -19.334,-10.025 0,0 -19.691,-22.914 -20.049,-44.397 0,0 7.518,-0.358 14.321,10.741 l 6.444,13.964 c 0,0 3.224,8.593 10.384,5.728 0,0 8.951,-5.37 -2.148,-13.247 0,0 4.296,-1.791 11.815,2.864 0,0 8.95,6.445 12.889,-3.222 0,0 4.655,-5.012 -12.889,-8.593 0,0 -13.605,-2.506 -17.544,-17.544 0,0 0.358,-10.741 -23.631,-17.902 0,0 -24.704,-19.692 -35.803,-46.903 l 13.247,-17.544 c 0,0 2.863,9.667 1.79,14.68 0,0 1.791,11.816 4.655,1.79 0,0 2.863,-16.47 -0.717,-24.346 l 7.877,-10.384 c 0,0 11.101,11.1 13.248,30.434 0,0 0,20.05 5.729,30.075 0,0 8.591,9.667 8.95,0 0,0 2.507,-12.531 -4.296,-20.05 0,0 -3.222,-18.618 6.087,-12.532 l 7.16,7.519 c 0,0 11.457,10.384 13.605,0.358 0,0 12.889,-23.988 -34.013,-54.779 l -0.717,-11.1 -6.086,-12.532 3.938,-16.469 c 0,0 39.384,21.124 44.397,48.693 0,0 4.296,21.483 3.58,33.656 0,0 -0.358,32.581 26.137,43.322 0,0 22.555,11.457 26.852,1.432 0,0 5.37,-5.728 -14.679,-20.05 0,0 -17.544,-14.322 -16.112,-40.1 0,0 2.864,-10.384 13.247,2.864 0,0 4.298,6.087 14.323,8.951 0,0 9.308,12.89 10.382,3.939 0,0 4.296,-7.519 -19.692,-25.421 0,0 -15.754,-20.766 -24.347,-26.853 0,0 -41.532,-45.113 -58.002,-51.2 l 7.877,-51.915 21.124,23.989 10.384,13.247 4.655,6.087 c 0,0 3.581,24.347 21.482,35.088 l 8.593,3.58 c 0,0 3.222,9.667 15.395,16.469 0,0 16.112,8.593 18.976,16.828 0,0 14.321,30.791 29.001,39.384 0,0 15.755,3.222 9.309,-9.309 0,0 -6.088,-9.667 -15.038,-15.395 0,0 -14.679,-28.285 2.865,-17.186 0,0 25.778,18.26 28.285,28.643 0,0 7.519,26.137 20.766,19.692 0,0 11.098,-11.815 -3.581,-31.149 l -9.308,-6.803 c 0,0 -6.803,-13.606 1.79,-11.099 0,0 10.74,3.58 11.457,0.358 0,0 -0.358,-12.531 -20.05,-16.112 0,0 -3.939,0.358 -9.667,-7.519 l -6.444,-10.741 c 0,0 -6.087,-14.321 5.37,-7.518 0,0 22.198,11.457 25.421,-3.581 0,0 -4.655,-14.322 -23.989,-12.173 0,0 -23.989,-3.938 -20.05,-13.247 0,0 -2.505,-6.803 17.186,-1.075 l 16.111,2.507 c 0,0 15.038,2.148 15.396,-7.877 0,0 3.222,-12.531 -17.544,-12.174 l -14.321,0.358 c 0,0 -9.309,0.358 -16.47,-3.938 l -65.521,-32.582 c 0,0 -46.545,-27.926 -65.879,-29.359 l 0.001,-24.347 -1.433,-18.259 c 0,0 27.568,8.593 48.335,31.507 0,0 20.765,21.841 39.742,22.556 0,0 11.816,10.025 45.472,20.051 l 28.284,11.099 c 0,0 13.248,7.519 17.186,13.606 0,0 3.58,5.012 11.099,5.37 0,0 10.384,-1.433 2.507,-9.667 l -10.741,-9.668 c 0,0 -8.95,-10.025 5.012,-8.234 0,0 23.631,-0.358 22.199,-12.889 0,0 1.432,-16.471 -26.137,-16.471 l -6.087,0.717 c 0,0 -6.087,0.715 -1.074,-5.371 0,0 7.161,-8.951 6.087,-19.334 0,0 2.507,-11.814 -12.532,-13.247 l -21.84,-2.864 c 0,0 -10.025,-4.297 -3.222,-11.1 0,0 5.012,-4.297 16.827,-2.864 0,0 7.161,1.432 8.235,1.432 1.075,0 12.532,5.013 19.334,0.716 0,0 7.519,-6.802 -1.074,-6.802 0,0 -11.457,1.789 -15.395,-0.359 0,0 -8.594,-8.235 -2.507,-15.395 l 11.458,-8.235 c 0,0 16.47,-21.482 -3.223,-17.544 0,0 -40.816,17.903 -59.076,29.001 0,0 -60.867,28.643 -136.413,-15.038 l 0.358,-16.111 c 0,0 15.753,-6.802 25.42,4.655 0,0 20.409,19.691 51.2,18.617 0,0 11.457,-2.147 3.222,-9.308 0,0 -3.222,-2.148 -7.16,0.358 l 2.864,-8.593 c 0,0 -0.358,-11.458 -10.025,-6.445 0,0 -15.037,4.653 -26.137,0.716 0,0 -14.68,-6.444 -1.79,-12.889 0,0 10.025,-11.456 39.384,-7.518 0,0 22.915,3.937 39.385,11.098 0,0 17.901,7.519 26.494,-3.222 0,0 4.297,-3.223 0.358,-11.457 H 458.289 l -36.162,13.963 -6.803,-14.679 h -64.089 c 0,0 10.742,111.35 -97.028,167.562 0,0 -17.186,-39.384 -0.358,-81.274 0,0 3.222,1.074 8.951,-12.89 l 11.815,-25.062 c 0,0 16.47,-38.31 20.051,-47.619 h -19.334 c 0,0 -15.754,65.521 -90.226,56.211 0,0 -8.593,0 -17.186,-6.086 0,0 -7.161,-10.383 -30.075,3.222 0,0 -27.211,6.086 -73.04,-12.889 C 64.805,40.103 35.445,25.418 0,0"
         style="fill:#176fc1;fill-opacity:1;fill-rule:nonzero;stroke:none"
         transform="matrix(1.3333333,0,0,-1.3333333,200.918,784.8972)"
         clip-path="url(#clipPath29)" />
      <path
         id="path30"
         d="m 0,0 2.845,1.285 7.107,-14.13 26.161,-24.37 14.693,-44.079 -10.751,-25.803 -16.485,-18.994 -17.202,-8.242 -16.005,1.536 -5.873,5.322 -7.15,66.608 z"
         style="fill:#231f20;fill-opacity:1;fill-rule:nonzero;stroke:none"
         transform="matrix(1.3333333,0,0,-1.3333333,390.38933,266.82107)"
         clip-path="url(#clipPath31)" />
      <path
         id="path32"
         d="m 0,0 3.579,-2.662 39.221,36.877 43.334,57.334 -2.667,30.333 -14.333,32.333 -9.481,11.437 -2.971,0.471 2.118,-13.574 4.334,-27.334 4.333,-29.333 -4.333,-12.333 -10,-11 -17,-15.334 c 0,0 -9,-14 -9.667,-15 -0.667,-1 -12,-15.333 -12,-15.333 L 2.8,11.549 Z"
         style="fill:#231f20;fill-opacity:1;fill-rule:nonzero;stroke:none"
         transform="matrix(1.3333333,0,0,-1.3333333,412.78187,473.25147)"
         clip-path="url(#clipPath33)" />
      <path
         id="path34"
         d="M 0,0 5.439,-2.512 4.667,-9 l -17,-22.667 -24,-13.333 -26.334,-13 -23,-8.667 -18.666,-35.666 v -26 l -0.667,-26 -5,-37.333 -2.667,-0.417 -5,2.417 0.334,14.333 -5.667,64.333 7,36.667 c 0,0 16,21.666 17,21.666 1,0 19.667,7.667 21,8 1.333,0.334 26.667,8 26.667,8 l 23.666,15 L -13,-9.333 Z"
         style="fill:#231f20;fill-opacity:1;fill-rule:nonzero;stroke:none"
         transform="matrix(1.3333333,0,0,-1.3333333,726.73827,276.0756)"
         clip-path="url(#clipPath35)" />
      <path
         id="path36"
         d="m 0,0 6.333,-5.667 -5,-9 -24.666,-13.333 -30.334,-25 -28,-47 -14,-29.667 -8.333,-27.666 -3,-24 3,-15.333 -11.667,10.333 -5.666,25.333 c 0,0 7,50.667 7.333,52 0.333,1.333 22.333,44.333 22.333,44.333 0,0 28,31.667 29.334,33 C -61,-30.333 -13,0.667 -13,0.667 L -4.333,3 Z"
         style="fill:#231f20;fill-opacity:1;fill-rule:nonzero;stroke:none"
         transform="matrix(1.3333333,0,0,-1.3333333,780.0716,313.40893)"
         clip-path="url(#clipPath37)" />
      <path
         id="path38"
         d="M 0,0 1.666,-11 -5,-8.667 l -15.334,5 L -34,-4 c 0,0 -11.334,-6.334 -12.667,-7.667 -1.333,-1.333 -5.999,-9 -7.333,-11 -1.334,-2 -13,-25.666 -13,-25.666 L -72,-62 -91.667,-64.667 -103.334,-71 l -8.333,-7.667 -7.333,-10.667 -6.334,-5.666 -2.333,0.666 -3.333,10 7.666,23.001 c 0,0 12.333,13.666 13,14.666 0.667,1 20,9.667 21,10.334 1,0.666 13,7.333 13,7.333 0,0 5,20.667 6.667,21.667 1.667,1 12.333,14.999 14.333,16.666 C -53.334,11 -42,15 -42,15 l 24,-2.333 10.333,-2.334 7.333,-6 z"
         style="fill:#231f20;fill-opacity:1;fill-rule:nonzero;stroke:none"
         transform="matrix(1.3333333,0,0,-1.3333333,874.29427,519.18627)"
         clip-path="url(#clipPath39)" />
      <path
         id="path40"
         d="m 0,0 v -8 l -7.667,-4 -13.333,3.333 -14.334,4 L -48,-7 l 3,-12 -2,-8.333 -7.334,-11 c 0,0 -12,-8.333 -13,-9 -1,-0.667 -17.666,-9.334 -17.666,-9.334 0,0 -13.334,-7.334 -14.667,-8 C -101,-65.333 -110.333,-71 -112,-72 c -1.667,-1 -13,-5.667 -13,-5.667 l -1.667,9 12.333,17 20,12.667 c 0,0 22.333,10.999 23,12.333 0.667,1.334 5.666,6 6,7 0.334,1 1.001,5.334 1.334,6.667 0.333,1.333 1.667,14 2,15 0.333,1 7.666,9.667 9.333,10.667 1.667,1 25.333,4 25.333,4 0,0 14.667,-3 15.667,-3.334 C -10.667,13 -2,5.667 -2,5.667 Z"
         style="fill:#231f20;fill-opacity:1;fill-rule:nonzero;stroke:none"
         transform="matrix(1.3333333,0,0,-1.3333333,880.96093,600.5196)"
         clip-path="url(#clipPath41)" />
      <path
         id="path42"
         d="m 0,0 c 0,0 38.666,10.667 28.333,-5.333 0,0 -11.667,-28.334 -57.667,-39.667 0,0 -31.333,-3.001 -31.333,12.333 0,0 -2.666,9 17.667,19 0,0 37,13 43,13.667"
         style="fill:#ffffff;fill-opacity:1;fill-rule:nonzero;stroke:none"
         transform="matrix(1.3333333,0,0,-1.3333333,1026.2943,621.40893)"
         clip-path="url(#clipPath43)" />
      <path
         id="path44"
         d="m 0,0 c 0,0 24.334,18.333 10.334,-4.667 0,0 -22,-38 -43,-45 0,0 -6.334,-0.333 -7.334,5.334 L -41.333,-35 c 0,0 -1.333,7 6,12.667 z"
         style="fill:#ffffff;fill-opacity:1;fill-rule:nonzero;stroke:none"
         transform="matrix(1.3333333,0,0,-1.3333333,1008.5156,473.85293)"
         clip-path="url(#clipPath45)" />
      <path
         id="path46"
         d="m 0,0 c 0,0 -25.881,7.833 -6.47,-12.26 0,0 23.157,-22.476 43.25,-19.752 0,0 7.492,2.044 3.065,11.239 0,0 -3.406,18.73 -39.845,20.773"
         style="fill:#ffffff;fill-opacity:1;fill-rule:nonzero;stroke:none"
         transform="matrix(1.3333333,0,0,-1.3333333,229.7864,444.28853)"
         clip-path="url(#clipPath47)" />
      <path
         id="path48"
         d="m 0,0 c 0,0 -13.623,11.919 1.021,6.811 l 63.684,-25.882 c 0,0 10.898,-1.362 11.579,-21.115 0,0 5.109,-28.265 -17.367,-16.005 0,0 -23.841,10.216 -58.917,56.191"
         style="fill:#ffffff;fill-opacity:1;fill-rule:nonzero;stroke:none"
         transform="matrix(1.3333333,0,0,-1.3333333,289.724,453.36987)"
         clip-path="url(#clipPath49)" />
      <path
         id="path50"
         d="m 0,0 c 0,0 -9.195,4.086 -5.108,-4.428 0,0 18.049,-45.634 34.396,-63.002 0,0 8.854,7.832 9.535,20.774 0,0 -20.093,38.141 -38.823,46.656"
         style="fill:#ffffff;fill-opacity:1;fill-rule:nonzero;stroke:none"
         transform="matrix(1.3333333,0,0,-1.3333333,436.39,508.76573)"
         clip-path="url(#clipPath51)" />
      <path
         id="path52"
         d="m 0,0 c 0,0 -95.607,-58.306 -39.474,-109.369 l 24.682,-19.103 c 0,0 59,5 51,56 0,0 -8,28 -27,42 0,0 -12.83,12.365 -9.208,30.472"
         style="fill:#f68712;fill-opacity:1;fill-rule:nonzero;stroke:none"
         transform="matrix(1.3333333,0,0,-1.3333333,390.90493,266.55747)"
         clip-path="url(#clipPath53)" />
      <path
         id="path54"
         d="m 0,0 c 0,-6.627 -5.373,-12 -12,-12 -6.627,0 -12,5.373 -12,12 0,6.627 5.373,12 12,12 C -5.373,12 0,6.627 0,0"
         style="fill:#ffffff;fill-opacity:1;fill-rule:nonzero;stroke:none"
         transform="matrix(1.3333333,0,0,-1.3333333,405.84893,353.85293)"
         clip-path="url(#clipPath55)" />
      <path
         id="path56"
         d="m 0,0 c 0,0 26,4.667 60,-4 0,0 14.667,-5.334 26,9.333 0,0 11.333,16.667 23.333,0 0,0 23.334,20.667 37.334,8 L 148,10.666 c 0,0 6.333,0.334 6.667,-4.333 0,0 9,-2.333 8.333,-7.333 0,0 4,-0.667 4,-5 0,0 7.333,-2.334 4,-7 0,0 10,-2.001 4.333,-8.334 0,0 -23,-39.666 -72,-47.666 0,0 -45.666,-1 -44.666,-63.667 l 1.365,-73.856 c 0,0 -8.698,-51.477 -25.365,-51.477 0,0 -9.667,-6.001 -18,-0.333 0,0 -6,-2.334 -12.667,6 0,0 -10.333,2 -12.667,7.333 0,0 -2.333,-6 -6.333,6.333 0,0 -5.333,-2.333 -10.667,11 0,0 -4.333,16.667 -4.333,41.667 0,0 -16.555,8.123 -25.888,17.789 0,0 27.888,40.211 51.555,59.544 0,0 30.667,23.667 22,59 C 17.667,-49.667 9,-9 0,0"
         style="fill:#f68712;fill-opacity:1;fill-rule:nonzero;stroke:none"
         transform="matrix(1.3333333,0,0,-1.3333333,492.07093,252.51893)"
         clip-path="url(#clipPath57)" />
      <path
         id="path58"
         d="m 0,0 c 0,0 -48.666,-12.667 -87.333,-79.667 0,0 -44,-72 -20,-112 0,0 11.333,-15 28,-25.333 0,0 14.666,-12 16.333,-19.333 0,0 19.334,46.333 51.667,39.666 0,0 11.333,52.334 41.333,54.667 0,0 37.496,-5.176 37.829,-10.509 0,0 -1.162,31.509 -12.162,52.842 0,0 2.333,7.333 7,11 0,0 5.667,8 -0.333,8 0,0 1.666,18.667 -15.334,25.667 0,0 -10.666,20 -17.666,24 0,0 -14.668,30.667 -29.334,31"
         style="fill:#f68712;fill-opacity:1;fill-rule:nonzero;stroke:none"
         transform="matrix(1.3333333,0,0,-1.3333333,784.5156,320.07493)"
         clip-path="url(#clipPath59)" />
      <path
         id="path60"
         d="m 0,0 -16.666,-1 c 0,0 -9.333,0 -6,-10.333 0,0 12,-15.333 -8.667,-29 0,0 -49.667,-22.667 -59,-33.667 0,0 -19.667,-17.667 -23.333,-29 0,0 -2.667,-10.333 24.333,-15.333 0,0 11.667,-0.334 23,-7.334 0,0 37.667,-33.334 62.667,-11 0,0 27.666,22.333 28.666,72.667 0,0 3,46.667 5.667,54.333 0,0 -18.001,0 -23.667,5.667 0,0 -1.667,4 -7,4"
         style="fill:#f68712;fill-opacity:1;fill-rule:nonzero;stroke:none"
         transform="matrix(1.3333333,0,0,-1.3333333,840.5156,596.5196)"
         clip-path="url(#clipPath61)" />
      <path
         id="path62"
         d="m 0,0 c 0,-3.765 -3.052,-6.817 -6.817,-6.817 -3.765,0 -6.817,3.052 -6.817,6.817 0,3.765 3.052,6.817 6.817,6.817 C -3.052,6.817 0,3.765 0,0"
         style="fill:#231f20;fill-opacity:1;fill-rule:nonzero;stroke:#231f20;stroke-width:1;stroke-linecap:butt;stroke-linejoin:miter;stroke-miterlimit:4;stroke-dasharray:none;stroke-opacity:1"
         transform="matrix(1.3333333,0,0,-1.3333333,399.4264,354.1616)"
         clip-path="url(#clipPath63)" />
      <path
         id="path64"
         d="m 0,0 c 0,0 -2.073,-8.974 3.873,-19.677 0,0 6.021,-9.523 17.536,-17.2 0,0 18.765,-19.143 18.765,-44.353 0,0 1.279,-45.207 -52.95,-51.897 l 27.589,-23.07 c 0,0 21.406,27.827 31.157,40.195 0,0 22.358,23.546 33.06,34.962 0,0 12.13,10.941 7.849,39.72 0,0 -7.373,36.389 -15.697,51.611 0,0 -26.706,3.741 -71.182,-10.291"
         style="fill:#ffffff;fill-opacity:1;fill-rule:nonzero;stroke:none"
         transform="matrix(1.3333333,0,0,-1.3333333,393.44853,265.47533)"
         clip-path="url(#clipPath65)" />
      <path
         id="path66"
         d="m 0,0 c 0,0 26.081,-16.385 36.331,-26.885 0,0 -35.831,-9.115 -72.831,-53.865 0,0 -57,-74.5 -42.25,-132.75 0,0 -26.5,18.25 -39,23.75 0,0 1,11.5 0,31.5 0,0 -3,57.5 6.5,78.75 0,0 7.25,22.25 36.25,27.25 0,0 53,9 75,52.25"
         style="fill:#ffffff;fill-opacity:1;fill-rule:nonzero;stroke:none"
         transform="matrix(1.3333333,0,0,-1.3333333,733.5156,279.18627)"
         clip-path="url(#clipPath67)" />
      <path
         id="path68"
         d="m 0,0 c 0,0 14.25,45.75 53.5,41 0,0 6,44.5 36.75,54 0,0 28.63,-2.265 38.63,-10.265 0,0 9.354,-28.073 3.854,-56.073 0,0 -16.734,-2.662 -24.984,8.838 0,0 -8.75,1.5 -20.75,0.25 0,0 -16.5,-1.75 -12.25,-13.25 0,0 10.25,-14.25 -2.5,-22.5 0,0 -16.75,-13 -33.75,-19 0,0 -26.5,-14 -32,-21.75 0,0 -6.25,32.5 -6.5,38.75"
         style="fill:#ffffff;fill-opacity:1;fill-rule:nonzero;stroke:none"
         transform="matrix(1.3333333,0,0,-1.3333333,703.84893,642.5196)"
         clip-path="url(#clipPath69)" />
    </g>
  </g>
</svg>
